<svg width="99" height="97" viewBox="0 0 99 97" fill="none" xmlns="http://www.w3.org/2000/svg">
<path d="M99 48.349L80.1869 55.6013C77.7196 65.8755 70.0094 74.0344 60.1402 77.3584L59.5234 71.6169C65.6916 69.1995 70.9346 64.0624 73.4019 58.0188C74.6355 54.997 75.2523 51.673 75.2523 48.349C75.2523 45.025 74.6355 41.701 73.4019 38.6792C70.9346 32.6356 65.6916 27.4985 59.5234 25.081C57.9813 24.4767 56.7477 24.1745 55.2056 23.8723C53.3551 23.5701 51.5047 23.268 49.6542 23.268C47.8037 23.268 45.9533 23.5701 44.1028 23.8723C42.5607 24.1745 41.3271 24.4767 39.785 25.081C33.6168 27.4985 28.3738 32.6356 25.9065 38.6792C24.6729 41.701 24.0561 45.025 24.0561 48.349C24.0561 51.673 24.6729 54.997 25.9065 58.0188C28.3738 64.0624 33.3084 68.8973 39.4766 71.6169L38.8598 77.3584C28.9907 73.7322 21.5888 65.8755 19.1215 55.6013L0 48.349L19.1215 41.0966C21.8972 29.9159 30.8411 21.1527 42.2523 18.4331L45.028 11.4829L49.6542 0L53.972 10.5763L57.0561 18.1309C68.4673 20.8505 77.7196 29.6138 80.1869 40.7945L99 48.349Z" fill="#FF5D17"/>
<path d="M79.2636 19.6427L70.6281 23.5711L75.2543 28.1038L79.2636 19.6427Z" fill="#FFA114"/>
<path d="M79.2636 77.0557L75.2543 68.5946L70.6281 73.4295L79.2636 77.0557Z" fill="#FFA114"/>
<path d="M20.3547 77.3579L28.9902 73.4295L24.364 68.5946L20.3547 77.3579Z" fill="#FFA114"/>
<path d="M20.3547 19.6427L24.364 28.1038L28.9902 23.2689L20.3547 19.6427Z" fill="#FFA114"/>
<path d="M58.9051 87.3302L49.6528 97L40.4005 87.3302L41.9425 69.1993L45.335 33.2397L40.4005 27.1961C42.2509 26.2896 44.1014 25.9874 46.2603 25.6852C47.4939 25.383 48.4192 25.383 49.6528 25.383C50.8864 25.383 51.8117 25.383 53.0453 25.6852C55.2042 25.9874 57.0547 26.5917 58.9051 27.1961L53.9706 33.2397L57.3631 69.1993L58.9051 87.3302Z" fill="#FFA114"/>
</svg>
